<?xml version="1.0" encoding="iso-8859-1"?>
<!-- Generator: Adobe Illustrator 19.0.0, SVG Export Plug-In . SVG Version: 6.00 Build 0)  -->
<svg version="1.1" id="Layer_1" xmlns="http://www.w3.org/2000/svg" xmlns:xlink="http://www.w3.org/1999/xlink" x="0px" y="0px"
	 viewBox="0 0 511.999 511.999" style="enable-background:new 0 0 511.999 511.999;" xml:space="preserve">
<g>
	<polygon style="fill:#2BA5F7;" points="276.484,234.017 138.543,335.02 8.766,270.008 	"/>
	<polygon style="fill:#2BA5F7;" points="309.41,247.714 356.022,443.964 223.579,377.619 188.336,359.969 188.336,359.957 
		288.964,266.663 	"/>
</g>
<g>
	<polygon style="fill:#1E91C4;" points="503.203,68.039 309.41,247.714 288.964,266.663 288.566,266.23 276.507,234.017 
		276.484,234.017 	"/>
	<polygon style="fill:#1E91C4;" points="288.566,266.23 288.964,266.663 188.336,359.957 188.336,359.969 170.487,424.793 
		137.256,335.955 138.543,335.02 276.484,234.017 276.507,234.017 	"/>
	<polygon style="fill:#1E91C4;" points="223.579,377.619 170.487,424.793 188.336,359.969 	"/>
</g>
<g>
	<polygon style="fill:#2BA5F7;" points="503.203,68.039 276.484,234.017 8.766,270.008 	"/>
	<polygon style="fill:#2BA5F7;" points="503.227,68.027 356.022,443.964 309.41,247.714 503.203,68.039 503.215,68.027 	"/>
</g>
<g>
	<path style="fill:#FFFFFF;" d="M373.671,327.46c-1.064,0-2.145-0.195-3.196-0.606c-4.511-1.766-6.737-6.855-4.971-11.367
		l55.742-142.356c1.767-4.511,6.857-6.736,11.367-4.971c4.511,1.766,6.737,6.856,4.971,11.367l-55.742,142.356
		C380.487,325.344,377.177,327.46,373.671,327.46z"/>
	<circle style="fill:#FFFFFF;" cx="363.619" cy="346.377" r="8.773"/>
</g>
<path style="fill:#333333;" d="M509.384,61.784c-2.501-2.463-6.227-3.2-9.476-1.873L5.455,261.892
	c-3.186,1.302-5.316,4.345-5.448,7.785s1.759,6.638,4.837,8.18l124.677,62.456l32.758,87.556c1.287,3.439,4.57,5.699,8.214,5.699
	c0.131,0,0.263-0.002,0.394-0.008c2.062-0.092,3.95-0.918,5.419-2.224l0.015,0.018l48.644-43.226l127.134,63.683
	c1.233,0.618,2.579,0.929,3.929,0.929c1.064,0,2.13-0.194,3.144-0.584c2.302-0.883,4.125-2.695,5.024-4.991l147.2-375.935
	C512.674,67.962,511.884,64.247,509.384,61.784z M38.144,274.915l205.361-27.614l-105.824,77.476L38.144,274.915z M75.656,252.167
	l364.675-148.966L273.127,225.615L75.656,252.167z M386.11,164.642l-93.692,86.863l-5.365-14.34L386.11,164.642z M304.355,264.365
	l38.794,163.338l-139.566-69.911L304.355,264.365z M319.134,250.663l161.953-150.15L358.083,414.656L319.134,250.663z
	 M147.803,339.112l124.544-91.183l6.162,16.47l-96.135,89.129c-1.197,1.11-2.061,2.531-2.494,4.106l-10.659,38.724L147.803,339.112z
	 M186.814,398.553l7.146-25.959l14.112,7.068L186.814,398.553z"/>
<g>
</g>
<g>
</g>
<g>
</g>
<g>
</g>
<g>
</g>
<g>
</g>
<g>
</g>
<g>
</g>
<g>
</g>
<g>
</g>
<g>
</g>
<g>
</g>
<g>
</g>
<g>
</g>
<g>
</g>
</svg>
